<?xml version="1.0" standalone="no"?>
<!DOCTYPE svg PUBLIC "-//W3C//DTD SVG 20010904//EN"
 "http://www.w3.org/TR/2001/REC-SVG-20010904/DTD/svg10.dtd">
<svg version="1.0" xmlns="http://www.w3.org/2000/svg"
 width="405.000000pt" height="573.000000pt" viewBox="0 0 405.000000 573.000000"
 preserveAspectRatio="xMidYMid meet">
<metadata>
Created by potrace 1.16, written by Peter Selinger 2001-2019
</metadata>
<g transform="translate(0.000000,573.000000) scale(0.100000,-0.100000)"
fill="#000000" stroke="none">
<path d="M1405 5397 c-1151 -8 -1221 -9 -1245 -26 l-25 -18 -3 -1786 -2 -1785
167 -159 c93 -88 220 -209 284 -269 64 -60 223 -211 355 -335 131 -124 271
-253 309 -286 39 -33 134 -120 213 -194 267 -250 315 -290 380 -322 118 -56
243 -47 359 26 28 17 154 126 280 240 125 114 269 245 318 290 233 211 301
273 465 427 97 91 257 239 355 330 99 91 202 187 229 214 l49 48 -7 1782 c-7
1697 -8 1782 -25 1806 l-18 25 -609 1 c-335 0 -1158 -4 -1829 -9z m2328 -369
c4 -128 7 -897 7 -1710 l0 -1476 -177 -163 c-98 -90 -277 -256 -398 -369 -279
-261 -556 -514 -766 -702 -90 -80 -186 -167 -214 -193 -93 -88 -191 -111 -286
-68 -25 11 -83 56 -129 99 l-84 78 3 81 c4 96 12 115 50 115 40 0 50 -16 53
-95 3 -62 5 -70 23 -70 18 0 21 8 25 80 5 77 6 80 30 80 24 0 25 -3 28 -67 5
-113 58 -121 61 -9 1 22 2 23 19 9 9 -9 31 -23 49 -32 42 -21 83 -66 83 -90 0
-45 -67 -75 -98 -44 -9 9 -15 9 -23 1 -19 -19 -5 -47 33 -61 32 -12 40 -12 72
3 40 19 66 59 66 101 0 21 3 25 18 18 61 -27 153 -8 139 29 -5 14 -15 16 -52
10 -39 -5 -49 -2 -70 17 -51 48 -20 127 48 122 90 -7 92 -7 92 8 0 8 -17 23
-37 33 -46 22 -97 15 -138 -20 -31 -26 -53 -83 -43 -110 7 -18 10 -19 -74 34
-44 28 -53 38 -53 63 0 21 8 35 26 47 24 16 28 16 59 -1 36 -20 55 -15 55 12
0 21 -49 52 -82 52 -34 0 -89 -37 -101 -69 -10 -28 -11 -28 -38 -12 -23 13
-33 14 -63 3 -27 -10 -41 -10 -56 -2 -12 6 -38 10 -58 9 -21 -2 -43 1 -50 5
-7 4 -19 5 -27 2 -12 -4 -15 -27 -15 -106 l0 -101 -127 113 c-145 129 -232
209 -493 458 -102 97 -259 246 -350 331 -90 84 -214 201 -275 258 l-110 105
-6 175 c-4 97 -7 863 -8 1704 l-1 1527 238 1 c130 1 602 5 1047 8 446 4 1116
8 1491 9 l681 2 6 -232z"/>
<path d="M1570 5162 c-74 -36 -113 -100 -131 -213 -28 -182 58 -359 175 -359
101 0 174 101 183 254 9 132 -30 248 -99 297 -31 22 -102 34 -128 21z m89
-117 c38 -32 56 -111 48 -208 -10 -114 -63 -172 -122 -133 -41 27 -57 79 -57
178 0 98 20 154 62 175 33 17 34 17 69 -12z"/>
<path d="M1847 5142 c-25 -28 -19 -82 8 -82 16 0 21 -31 35 -210 19 -244 19
-240 51 -240 32 0 32 0 70 193 13 64 26 112 29 105 4 -7 17 -60 30 -118 42
-191 37 -180 69 -180 27 0 29 3 35 53 8 63 26 319 26 365 0 21 5 32 14 32 20
0 29 17 28 53 -1 38 -15 47 -77 47 -60 0 -75 -12 -75 -58 0 -25 5 -35 20 -39
19 -5 20 -14 20 -129 0 -67 -4 -125 -8 -128 -4 -2 -14 28 -21 67 -16 90 -31
140 -45 149 -36 24 -56 -11 -76 -135 -7 -43 -17 -80 -21 -83 -5 -3 -9 41 -9
98 0 57 -3 113 -6 126 -5 18 -2 24 15 29 26 7 37 46 22 79 -9 21 -17 24 -64
24 -40 0 -58 -5 -70 -18z"/>
<path d="M2284 5136 c-8 -35 3 -76 21 -76 13 0 15 -27 15 -173 0 -160 -1 -174
-20 -190 -21 -17 -26 -52 -11 -75 5 -9 29 -12 82 -10 l74 3 0 40 c0 33 -4 40
-25 45 -25 6 -25 7 -27 130 -3 141 -2 141 55 0 96 -239 91 -230 133 -230 l29
0 0 230 c0 196 2 230 15 230 18 0 29 41 21 75 -6 24 -10 25 -74 25 -74 0 -92
-10 -92 -50 0 -30 17 -50 42 -50 16 0 18 -11 17 -127 -1 -147 4 -150 -75 54
-67 176 -61 168 -121 171 -49 3 -53 1 -59 -22z"/>
<path d="M2762 5148 c-15 -15 -16 -60 0 -76 7 -7 29 -12 50 -12 l38 0 0 -175
0 -175 -34 0 c-40 0 -66 -22 -66 -54 0 -40 17 -46 142 -46 117 0 119 0 130 25
8 19 8 31 0 50 -10 21 -19 25 -52 25 l-40 0 0 175 0 175 40 0 c46 0 63 21 51
66 l-7 29 -120 3 c-84 2 -123 -1 -132 -10z"/>
<path d="M3140 5141 c-15 -29 -12 -49 10 -68 19 -16 20 -30 20 -191 0 -144 -2
-174 -15 -178 -21 -8 -20 -80 1 -88 9 -3 80 -6 159 -6 167 0 163 -2 164 99 0
82 -12 113 -42 109 -19 -3 -22 -10 -25 -55 l-3 -53 -80 0 -79 0 0 70 0 70 29
0 c23 0 30 -5 33 -21 4 -30 33 -48 50 -31 13 13 16 171 3 191 -13 22 -43 11
-54 -19 -7 -23 -16 -30 -35 -30 -25 0 -26 2 -26 65 l0 66 78 -3 77 -3 5 -50
c5 -45 7 -50 30 -50 30 0 38 31 32 128 l-4 67 -159 0 c-146 0 -159 -1 -169
-19z"/>
<path d="M604 5125 c-8 -34 3 -75 21 -75 13 0 15 -27 15 -175 0 -164 -1 -175
-20 -185 -20 -11 -26 -43 -14 -74 5 -13 26 -16 128 -16 138 0 170 12 199 73
32 67 16 180 -29 205 -15 8 -15 12 1 43 21 41 23 124 4 165 -23 49 -69 64
-191 64 -106 0 -108 0 -114 -25z m234 -301 c23 -16 31 -75 13 -103 -9 -15 -73
-28 -108 -23 -21 3 -23 9 -23 73 l0 69 48 0 c27 0 57 -7 70 -16z"/>
<path d="M1030 5131 c-15 -29 -12 -49 10 -71 18 -18 20 -33 20 -186 0 -144 -2
-168 -17 -179 -19 -14 -20 -74 -1 -86 7 -5 39 -9 70 -9 47 0 59 4 68 19 15 29
12 49 -10 71 -16 16 -20 33 -20 80 0 44 4 60 13 60 21 0 40 -27 82 -120 48
-107 51 -110 89 -110 43 0 57 12 58 47 1 36 -8 53 -28 53 -8 0 -29 32 -49 77
l-35 76 24 26 c32 34 46 72 46 127 0 52 -19 94 -56 123 -24 19 -40 21 -140 21
-102 0 -114 -2 -124 -19z"/>
<path d="M1330 4501 l-85 -6 -3 -78 c-2 -68 -5 -78 -20 -75 -14 3 -18 17 -20
81 l-3 77 -104 0 -105 0 0 -35 c0 -24 5 -35 15 -35 12 0 15 -13 15 -58 l0 -59
118 -5 c64 -2 236 -3 382 -2 146 1 529 4 853 7 l587 4 0 -88 0 -89 -662 -1
c-365 0 -799 -2 -965 -5 l-302 -6 -4 84 c-3 80 -3 79 -4 -19 l-1 -103 29 0 29
0 1 -657 c1 -362 2 -770 3 -907 l1 -248 45 -41 c25 -22 111 -97 191 -166 80
-69 262 -227 405 -351 142 -124 264 -229 271 -233 7 -4 133 98 325 264 172
150 379 328 460 398 l147 126 0 913 1 912 35 0 35 0 0 205 0 205 -105 0 -105
0 0 -81 c0 -78 -1 -80 -22 -77 -21 3 -23 9 -26 81 l-3 77 -104 0 -105 0 0 -80
c0 -72 -2 -80 -19 -80 -15 0 -20 10 -26 48 -3 26 -5 52 -4 58 1 5 1 19 0 32
-1 22 -3 23 -103 20 l-103 -3 -3 -77 c-3 -69 -5 -78 -22 -78 -17 0 -19 9 -22
78 l-3 77 -99 3 c-73 2 -102 -1 -108 -10 -4 -7 -8 -43 -8 -80 0 -61 -2 -68
-20 -68 -17 0 -19 8 -22 78 l-3 77 -100 0 -100 0 -3 -77 c-3 -70 -5 -78 -22
-78 -18 0 -20 7 -20 70 0 64 -2 71 -22 79 -18 7 -148 8 -190 2 -5 -1 -8 -37
-8 -81 0 -73 -2 -80 -20 -80 -18 0 -20 7 -20 75 0 63 -3 76 -19 85 -11 5 -21
9 -23 8 -2 -1 -41 -4 -88 -7z m1558 -1303 l2 -896 -79 -71 c-43 -39 -81 -68
-84 -65 -3 4 -6 437 -7 964 0 767 2 959 12 964 7 3 45 4 83 3 l70 -3 3 -896z
m-1608 525 c0 -203 3 -638 7 -967 l6 -600 -24 20 c-14 10 -51 41 -82 68 l-57
50 0 898 0 898 75 0 75 0 0 -367z m410 60 c0 -289 -2 -313 -23 -391 l-23 -83
-77 -4 -77 -4 0 394 0 395 100 0 100 0 0 -307z m410 167 l0 -140 -46 35 c-25
19 -50 35 -56 35 -5 0 -30 -13 -54 -30 l-44 -29 0 134 0 135 100 0 100 0 0
-140z m410 -252 l0 -393 -100 0 -100 0 0 393 0 392 100 0 100 0 0 -392z m-485
-422 c10 -39 19 -107 21 -151 4 -68 1 -90 -20 -145 -19 -51 -26 -61 -31 -45
-4 11 -18 49 -32 84 -26 62 -26 65 -15 175 6 61 17 129 23 151 10 36 12 38 25
21 7 -10 20 -50 29 -90z m372 -414 c16 -16 37 -49 47 -73 28 -67 32 -74 50
-73 14 2 16 -34 16 -372 l0 -373 -97 -85 -98 -85 -3 296 c-2 284 -1 296 17
310 63 43 105 113 69 113 -7 0 -30 5 -50 11 l-38 10 0 190 0 190 29 -15 c16
-9 42 -28 58 -44z m-702 -4 c5 -39 1 -291 -4 -304 -3 -6 -85 -34 -100 -34 -53
0 -14 -70 65 -116 l44 -26 0 -290 c0 -275 -1 -290 -17 -277 -10 8 -57 49 -105
92 l-88 79 0 367 c0 367 0 368 21 367 16 -1 25 11 41 53 21 56 95 141 122 141
10 0 17 -16 21 -52z m358 -1285 l-48 -41 -50 43 -50 43 -3 221 c-1 121 0 221
3 221 4 0 21 -11 39 -25 42 -32 52 -31 106 10 l45 34 3 -232 2 -232 -47 -42z"/>
<path d="M606 4376 c6 -17 -38 -120 -63 -148 -15 -17 -13 -18 38 -18 47 1 52
2 37 14 -28 20 -22 26 27 26 25 0 45 -4 45 -10 0 -5 -4 -10 -10 -10 -5 0 -10
-4 -10 -10 0 -6 32 -10 75 -10 41 0 75 4 75 9 0 5 -5 11 -10 13 -6 2 -25 37
-43 78 l-32 75 -68 3 c-56 2 -66 1 -61 -12z"/>
<path d="M3193 4379 c15 -9 17 -26 17 -124 0 -96 -3 -115 -15 -115 -8 0 -15
-4 -15 -10 0 -6 52 -10 135 -10 l135 0 10 26 c6 14 10 30 10 35 0 18 -37 8
-60 -16 -13 -14 -32 -25 -42 -25 -15 0 -18 8 -18 55 0 49 2 55 20 55 11 0 23
-7 26 -15 4 -8 17 -15 30 -15 21 0 24 4 24 40 0 36 -3 40 -24 40 -13 0 -26 -7
-30 -15 -3 -8 -15 -15 -26 -15 -17 0 -20 6 -20 50 0 42 3 50 18 50 11 0 27 -9
37 -20 10 -11 29 -20 42 -20 23 0 23 1 8 30 l-16 30 -132 0 c-94 -1 -127 -3
-114 -11z"/>
<path d="M607 4095 c-82 -29 -102 -83 -46 -129 34 -29 36 -29 161 -30 l88 -1
0 33 c0 20 6 35 15 38 36 14 9 24 -65 24 -47 0 -80 -4 -80 -10 0 -5 5 -10 10
-10 6 0 10 -16 10 -36 0 -31 -3 -35 -22 -32 -22 3 -23 8 -23 78 l0 75 31 3
c22 2 40 -5 62 -22 42 -36 64 -35 51 2 -9 27 -12 28 -82 30 -40 0 -89 -5 -110
-13z"/>
<path d="M3243 3965 c-25 -11 -33 -20 -33 -40 0 -40 15 -60 83 -112 67 -51 78
-63 71 -75 -11 -18 -52 -6 -79 22 -16 17 -39 30 -51 30 -22 0 -22 -1 -10 -37
l13 -37 74 -2 c93 -4 142 16 147 59 4 30 -18 55 -111 130 -45 36 -53 57 -22
57 8 0 30 -13 48 -30 43 -37 82 -41 71 -7 -14 47 -19 50 -95 53 -45 1 -87 -3
-106 -11z"/>
<path d="M520 3821 c0 -6 7 -11 15 -11 12 0 15 -14 15 -65 0 -49 -4 -67 -15
-71 -35 -14 -10 -24 59 -24 l74 0 -5 41 c-6 39 -5 41 18 37 19 -2 25 -10 29
-38 5 -35 5 -35 63 -38 l58 -3 -7 28 c-10 40 -23 53 -53 54 -23 0 -21 3 17 19
49 22 52 33 15 57 -20 14 -54 18 -155 21 -90 3 -128 1 -128 -7z"/>
<path d="M3296 3559 c-70 -20 -109 -94 -87 -162 17 -49 50 -76 112 -89 71 -15
142 4 147 40 5 33 -41 31 -56 -4 -9 -18 -19 -24 -35 -22 -21 3 -22 8 -25 93
-2 50 0 100 3 113 8 32 42 28 63 -8 15 -27 40 -38 54 -25 3 3 2 20 -1 38 l-7
32 -69 1 c-39 1 -83 -2 -99 -7z"/>
<path d="M560 3530 c0 -5 5 -10 10 -10 6 0 10 -28 10 -64 0 -43 5 -67 14 -75
22 -19 118 -25 160 -11 l36 12 0 69 c0 39 4 69 10 69 6 0 10 5 10 10 0 6 -18
10 -40 10 -22 0 -40 -4 -40 -10 0 -5 5 -10 10 -10 7 0 10 -25 8 -67 -3 -65 -4
-68 -28 -68 -24 0 -25 3 -28 68 -2 42 1 67 8 67 5 0 10 5 10 10 0 6 -32 10
-75 10 -43 0 -75 -4 -75 -10z"/>
<path d="M520 3252 c0 -5 7 -12 15 -16 11 -4 15 -22 15 -71 0 -51 -3 -65 -15
-65 -8 0 -15 -4 -15 -10 0 -6 33 -10 80 -10 47 0 80 4 80 10 0 6 -4 10 -10 10
-5 0 -10 8 -10 19 0 15 11 19 62 25 101 10 140 55 81 93 -20 14 -54 18 -155
21 -82 3 -128 1 -128 -6z"/>
<path d="M3235 3142 c-85 -29 -118 -108 -75 -179 24 -40 64 -61 132 -69 71 -8
134 10 175 51 28 28 33 40 33 80 0 40 -5 52 -33 80 -55 55 -140 68 -232 37z"/>
<path d="M606 2966 c6 -17 -38 -120 -63 -148 -15 -17 -13 -18 38 -18 47 1 52
2 37 14 -28 20 -22 26 27 26 25 0 45 -4 45 -10 0 -5 -4 -10 -10 -10 -5 0 -10
-4 -10 -10 0 -6 32 -10 75 -10 41 0 75 4 75 9 0 5 -5 11 -10 13 -6 2 -25 37
-43 78 l-32 75 -68 3 c-56 2 -66 1 -61 -12z"/>
<path d="M3203 2746 c14 -11 17 -30 17 -120 0 -86 -3 -108 -15 -112 -41 -16
-2 -24 120 -24 l135 0 10 26 c13 34 13 34 -13 34 -13 0 -32 -9 -42 -20 -10
-11 -26 -20 -37 -20 -16 0 -18 10 -18 115 0 96 3 115 15 115 8 0 15 5 15 10 0
6 -41 10 -102 10 -88 -1 -100 -3 -85 -14z"/>
<path d="M510 2691 c0 -5 7 -11 15 -15 17 -6 22 -121 5 -131 -22 -13 -8 -25
30 -25 22 0 40 5 40 10 0 6 -4 10 -10 10 -5 0 -10 21 -10 47 l0 48 27 -38 c14
-20 34 -37 43 -37 9 0 29 17 43 37 l27 38 0 -48 c0 -26 -4 -47 -10 -47 -5 0
-10 -4 -10 -10 0 -6 32 -10 75 -10 43 0 75 4 75 10 0 6 -4 10 -10 10 -6 0 -10
30 -10 70 0 40 4 70 10 70 6 0 10 5 10 10 0 6 -26 10 -58 10 -56 0 -60 -2 -85
-36 l-25 -36 -24 36 c-22 35 -25 36 -85 36 -35 0 -63 -4 -63 -9z"/>
<path d="M573 2409 c23 -14 25 -136 2 -145 -39 -15 -5 -24 95 -24 99 0 110 2
120 20 9 17 8 20 -8 20 -11 0 -25 -7 -32 -15 -7 -8 -21 -15 -31 -15 -15 0 -19
8 -19 40 0 33 3 40 20 40 11 0 20 -4 20 -10 0 -5 9 -10 20 -10 15 0 20 7 20
25 0 18 -5 25 -20 25 -11 0 -20 -4 -20 -10 0 -5 -9 -10 -20 -10 -16 0 -20 7
-20 35 0 28 4 35 19 35 10 0 24 -7 31 -15 17 -20 44 -20 36 1 -3 9 -6 18 -6
20 0 2 -51 4 -112 4 -82 -1 -108 -3 -95 -11z"/>
<path d="M3170 2320 c0 -23 4 -30 20 -30 10 0 24 9 30 20 6 11 17 20 25 20 12
0 15 -21 15 -115 0 -96 -3 -115 -15 -115 -8 0 -15 -4 -15 -10 0 -6 38 -10 95
-10 87 0 118 9 80 24 -22 8 -22 226 0 226 8 0 20 -9 27 -20 7 -11 24 -20 37
-20 19 0 22 4 17 23 -3 12 -6 25 -6 30 0 4 -70 7 -155 7 l-155 0 0 -30z"/>
<path d="M550 2121 c0 -5 7 -11 15 -15 11 -4 15 -22 15 -71 0 -51 -3 -65 -15
-65 -8 0 -15 -4 -15 -10 0 -5 23 -10 50 -10 28 0 50 5 50 10 0 6 -7 10 -15 10
-11 0 -15 11 -15 40 0 22 2 40 4 40 2 0 31 -22 63 -50 32 -28 68 -50 81 -50
21 0 22 4 22 80 0 64 3 80 15 80 8 0 15 5 15 10 0 6 -22 10 -50 10 -27 0 -50
-4 -50 -10 0 -5 7 -10 15 -10 10 0 15 -10 15 -30 0 -16 -3 -30 -6 -30 -3 0
-27 18 -53 40 -40 34 -54 40 -94 40 -26 0 -47 -4 -47 -9z"/>
<path d="M3230 1932 c0 -4 5 -13 10 -18 13 -13 -53 -212 -77 -230 -16 -12 -10
-13 47 -13 56 0 63 1 48 13 -10 7 -18 21 -18 30 0 13 10 16 50 16 41 0 50 -3
50 -18 0 -10 -5 -23 -12 -30 -9 -9 8 -12 80 -12 83 0 115 9 79 23 -7 3 -30 59
-51 126 l-39 121 -83 0 c-46 0 -84 -4 -84 -8z"/>
<path d="M556 1834 c-9 -23 -8 -24 14 -24 11 0 23 7 26 15 4 8 12 15 20 15 11
0 14 -18 14 -75 0 -43 -4 -75 -10 -75 -5 0 -10 -4 -10 -10 0 -6 34 -10 83 -10
70 1 80 3 65 14 -23 17 -27 156 -4 156 8 0 16 -7 20 -15 8 -22 48 -20 44 3 -3
15 -19 17 -129 20 -109 2 -128 0 -133 -14z"/>
<path d="M2542 1474 c-17 -18 -28 -84 -15 -84 6 0 18 9 28 20 23 25 67 26 88
2 25 -27 25 -386 1 -413 -24 -27 -9 -39 49 -39 67 0 82 9 62 36 -11 15 -14 59
-15 215 0 214 0 213 59 225 28 6 32 4 42 -25 15 -42 29 -39 29 5 0 73 -3 74
-168 74 -117 -1 -150 -4 -160 -16z"/>
<path d="M1550 1459 c-45 -28 -114 -103 -142 -156 -19 -35 -28 -43 -52 -43
-28 0 -28 -1 -22 -39 5 -35 1 -45 -39 -100 -25 -34 -47 -61 -51 -61 -3 0 -16
25 -30 55 -42 95 -29 220 27 259 34 23 86 21 99 -4 6 -11 15 -18 21 -15 11 7
33 50 43 83 7 21 4 22 -39 22 -116 0 -218 -59 -251 -146 -23 -59 -15 -160 18
-234 54 -120 220 -215 312 -180 23 9 26 13 16 25 -7 8 -28 15 -47 15 -37 0
-82 19 -102 44 -11 13 -5 24 35 73 27 32 49 59 50 61 0 1 20 -5 43 -13 24 -8
57 -16 73 -17 33 -3 33 -2 73 -112 29 -80 40 -86 150 -86 92 0 95 1 85 19 -12
23 -13 110 -2 129 17 26 59 -3 139 -94 46 -52 55 -54 256 -54 147 0 194 3 217
15 33 17 170 171 170 191 0 23 -15 16 -96 -47 -111 -86 -119 -89 -223 -89
-124 0 -121 -7 -121 232 0 159 2 189 16 203 9 9 24 15 33 13 24 -5 30 -308 6
-328 -8 -7 -15 -19 -15 -26 0 -11 21 -14 96 -14 52 0 104 5 115 10 40 22 110
163 90 183 -6 6 -35 -15 -76 -53 -79 -74 -108 -78 -113 -17 -4 41 -9 34 118
145 19 17 32 33 28 37 -4 4 -32 -5 -64 -19 -78 -36 -84 -35 -84 18 0 35 5 48
22 60 29 20 84 21 92 1 9 -25 26 -17 26 14 0 63 5 61 -195 61 -196 0 -220 -6
-190 -46 12 -15 14 -66 15 -266 0 -221 -2 -248 -16 -248 -32 0 -71 40 -104
106 -35 71 -34 56 -11 214 11 78 -2 146 -33 179 -22 23 -40 31 -86 36 -33 4
-73 4 -90 0 -30 -7 -30 -7 -12 -29 16 -21 18 -45 16 -239 -1 -119 -5 -225 -9
-236 -7 -22 -28 -33 -49 -25 -43 16 -67 222 -28 243 9 5 25 23 35 40 l18 31
-39 0 -39 0 -7 101 c-6 94 -17 139 -34 139 -4 0 -23 -10 -42 -21z m319 -75
c38 -32 48 -78 31 -151 -11 -50 -60 -126 -73 -113 -13 12 -10 290 2 290 5 0
23 -12 40 -26z m-329 -63 c5 -11 10 -45 10 -75 0 -54 -1 -56 -32 -64 -45 -12
-66 -4 -84 30 -14 27 -13 32 6 63 38 61 81 81 100 46z"/>
</g>
</svg>
